# xmcd CD database file
#
# Track frame offsets:
#	183
#	27633
#	39398
#	61343
#	84158
#	117728
#	130498
#	153963
#	168595
#	189320
#
# Disc length: 2986 seconds
#
# Revision: 2
# Processed by: cddbd v1.5.1PL0 Copyright (c) Steve Scherf et al.
# Submitted via: CDex 1.51
#
DISCID=830ba80a
DTITLE=Kitaro - Astral Voyage
DYEAR=1978
DGENRE=New Age
TTITLE0=By the Seaside
TTITLE1=Soul of the Sea
TTITLE2=Micro Cosmos
TTITLE3=Beat
TTITLE4=Fire
TTITLE5=Mu
TTITLE6=Dawn of the Astral
TTITLE7=Endless Dreamy World
TTITLE8=Kaiso
TTITLE9=Astral Voyage
EXTD=YEAR: 1978
EXTT0=
EXTT1=
EXTT2=
EXTT3=
EXTT4=
EXTT5=
EXTT6=
EXTT7=
EXTT8=
EXTT9=
PLAYORDER=
